<svg id="Layer_1" data-name="Layer 1" xmlns="http://www.w3.org/2000/svg" viewBox="0 0 1879.42 687.12"><defs><style>.cls-1,.cls-4{fill:#0096c7;}.cls-2{fill:#63ac37;}.cls-3,.cls-6{fill:#023e8a;}.cls-4{font-size:454.65px;font-family:Gilroy-ExtraBold, Gilroy;font-weight:800;}.cls-5{letter-spacing:-0.01em;}.cls-6{font-size:145.66px;font-family:Gilroy-Light, Gilroy;font-weight:300;}.cls-7{letter-spacing:0em;}.cls-8{letter-spacing:0em;}.cls-9{letter-spacing:-0.01em;}.cls-10{letter-spacing:-0.05em;}.cls-11{letter-spacing:0em;}</style></defs><path class="cls-1" d="M142.48,616.42l.06-.2a2.17,2.17,0,0,0,.07-.24c2.4-8,37.82-121.55,91.34-69,3.32,3,8.94,6.26,11.79,10.75-15.12-31.13-38.43-51.17-68.81-51.17C55.6,506.61,114.4,856.3,27.32,856.3c120.36,0,91.79-162.29,115.16-239.88Z" transform="translate(-27.32 -195.49)"/><path class="cls-2" d="M186,568.21h0Z" transform="translate(-27.32 -195.49)"/><path class="cls-3" d="M231.5,537c-52.12-47.32-81.92,60.4-81.92,60.4S152,574.78,189,576.09c89.13,3.15-9.6,280.23,153.92,280.21C281,856.32,282.2,581.73,231.5,537Z" transform="translate(-27.32 -195.49)"/><path class="cls-3" d="M207.7,402.38a84.16,84.16,0,0,1,21.79,102.1,86.55,86.55,0,0,0,16.63-14.68,84.12,84.12,0,0,0-9.5-120.44c-36.63-30.69-91.75-26.53-123.13,9.3A85,85,0,0,0,101.2,397C133,375.42,176.91,376.58,207.7,402.38Z" transform="translate(-27.32 -195.49)"/><path class="cls-1" d="M134.85,396.55C162.63,364.83,209,358,244.73,378.11a86.68,86.68,0,0,0-11.28-11.4C196.82,336,141.7,340.18,110.32,376a84.12,84.12,0,0,0,9.5,120.44,87.93,87.93,0,0,0,13.25,9.15A84,84,0,0,1,134.85,396.55Z" transform="translate(-27.32 -195.49)"/><path class="cls-3" d="M105.38,285.56c7.67-5.77,16.28-9.16,25.15-11.71,20.35-5.84,41-6.76,61.82-4.6,13,1.34,25.64,4.23,37.74,9.86,7,3.27,13.62,7.35,19,13.61,4,4.64,6.6,9.88,6,16.67-.2,2.28,0,4.61.05,6.92,0,4.31,0,8.62,0,13.5l64.1-38.88c-.66-.48-.92-.68-1.19-.85q-72.58-47-145.16-94c-1.51-1-2.52-.59-3.83.21Q103.35,236.17,37.62,276c-3.35,2-6.7,4.1-10.3,6.31.67.48,1.05.77,1.43,1,2.48,1.7,5.91,2.77,7.16,5.26s.36,6.38.38,9.67c0,3.5,0,7,0,10.46h4.77V291.32L91.46,323.9c0-5.54.22-10.35-.06-15.11a20.16,20.16,0,0,1,5.16-14.89A57.79,57.79,0,0,1,105.38,285.56Z" transform="translate(-27.32 -195.49)"/><path class="cls-3" d="M47,353.21c-2.4-7.44-4.53-15-6.86-22.72h-3c-1.4,4.93-2.36,9.79-4.14,14.24-4,10-4.61,20.72-5.43,31.4-.16,2,.55,3.51,2.35,3.55,5.72.12,11.46.11,17.18,0,1.64,0,2.58-1.45,2.44-3.29C48.86,368.62,49.39,360.74,47,353.21Z" transform="translate(-27.32 -195.49)"/><path class="cls-3" d="M34.36,324.37c.93.86,2.24,1.29,2.07,3.18,0,.28,1.35,1,2.07,1a4.19,4.19,0,0,0,2.39-.89c-.2-2.12,1.54-2.44,2.31-3.62a53,53,0,0,0,2.72-5.31c-.48-3.91-2.86-7.27-6-8-2.79-.68-6.06,1.22-7.41,4.3A8.32,8.32,0,0,0,34.36,324.37Z" transform="translate(-27.32 -195.49)"/><path class="cls-1" d="M99.2,371.13a92.93,92.93,0,0,1,6.77-8.77c33.51-38.26,92.4-42.71,131.52-9.92.58.48,1.14,1,1.7,1.49s1.13.88,1.69,1.34a93.86,93.86,0,0,1,9.38,9.08c-2.32-43.15-2.95-51.73-2.95-51.73a19.66,19.66,0,0,0-6.39-15.5,52.52,52.52,0,0,0-16-10c-15-6.36-30.55-8.76-46.43-9.23-18.51-.54-36.75,1.37-54.38,8.19-7.18,2.77-14,6.32-19.68,12.23A18.51,18.51,0,0,0,99.16,312C99.25,322.5,99.23,350.64,99.2,371.13Z" transform="translate(-27.32 -195.49)"/><text class="cls-4" transform="translate(369.53 471.45)"><tspan class="cls-5">R</tspan><tspan x="275.06" y="0">OGER</tspan></text><text x="-27.32" y="-195.49"/><text class="cls-6" transform="translate(396.81 652.16)">E<tspan class="cls-7" x="77.64" y="0">D</tspan><tspan class="cls-8" x="182.81" y="0">U</tspan><tspan class="cls-9" x="279.96" y="0">C</tspan><tspan class="cls-10" x="387.9" y="0">A</tspan><tspan x="472.24" y="0">TION </tspan><tspan class="cls-11" x="841.79" y="0">S</tspan><tspan x="924.67" y="0">E</tspan><tspan class="cls-9" x="1002.31" y="0">R</tspan><tspan x="1090.14" y="0">VICES</tspan></text></svg>